<?xml version="1.0" standalone="no"?>
<!DOCTYPE svg PUBLIC "-//W3C//DTD SVG 20010904//EN"
 "http://www.w3.org/TR/2001/REC-SVG-20010904/DTD/svg10.dtd">
<svg version="1.0" xmlns="http://www.w3.org/2000/svg"
 width="720.000000pt" height="818.000000pt" viewBox="0 0 720.000000 818.000000"
 preserveAspectRatio="xMidYMid meet">
<metadata>
Created by potrace 1.15, written by Peter Selinger 2001-2017
</metadata>
<g transform="translate(0.000000,818.000000) scale(0.100000,-0.100000)"
fill="#000000" stroke="none">
<path d="M2230 8146 c-6 -19 -20 -46 -31 -60 -11 -14 -17 -26 -14 -26 4 0 2
-6 -4 -14 -6 -7 -8 -22 -4 -31 4 -13 3 -16 -5 -11 -7 4 -12 1 -12 -8 0 -9 -4
-16 -10 -16 -5 0 -10 -11 -10 -25 0 -14 -4 -25 -10 -25 -5 0 -10 -13 -10 -30
0 -21 5 -30 17 -30 14 0 14 -2 -3 -21 -10 -12 -18 -29 -16 -39 1 -9 -4 -23
-13 -30 -8 -7 -15 -16 -15 -21 0 -5 -13 -30 -29 -57 -17 -26 -35 -70 -41 -97
-6 -28 -18 -60 -26 -72 -16 -26 -18 -37 -4 -28 6 3 10 1 10 -4 0 -6 -3 -11 -8
-11 -4 0 -13 -9 -19 -19 -10 -16 -9 -18 8 -14 15 4 18 2 13 -11 -3 -9 -10 -16
-15 -16 -5 0 -9 -7 -9 -15 0 -8 -4 -15 -9 -15 -15 0 -34 -58 -27 -85 4 -16 2
-25 -5 -25 -6 0 -8 -7 -5 -16 3 -8 -1 -26 -10 -39 -9 -13 -14 -37 -13 -52 2
-15 0 -34 -4 -41 -5 -6 -6 -12 -3 -12 10 0 -27 -84 -44 -103 -9 -9 -18 -34
-19 -55 -3 -56 -6 -73 -19 -120 -7 -23 -10 -46 -7 -51 3 -5 -2 -16 -10 -24
-19 -19 -19 -31 -1 -24 17 7 13 -37 -6 -60 -10 -13 -10 -17 -1 -20 10 -4 10
-10 2 -24 -5 -11 -9 -27 -8 -37 1 -9 0 -26 -1 -37 -2 -15 -4 -12 -11 10 -6 23
-7 19 -4 -20 3 -27 6 -63 8 -80 2 -16 1 -42 -4 -57 -6 -21 -4 -28 7 -28 18 0
18 -5 -2 -36 -11 -16 -15 -36 -11 -57 3 -20 0 -40 -9 -52 -8 -10 -14 -31 -14
-47 0 -15 -4 -28 -9 -28 -12 0 -19 -69 -11 -101 11 -36 1 -79 -17 -79 -13 0
-13 2 -2 17 12 14 12 16 -1 11 -17 -5 -27 -48 -12 -48 5 0 12 -9 15 -20 3 -13
0 -20 -9 -20 -17 0 -18 -12 -2 -28 9 -9 8 -15 -7 -25 -10 -8 -15 -19 -11 -25
5 -8 -1 -12 -14 -12 -17 0 -19 -2 -8 -15 11 -12 17 -9 40 18 34 40 42 32 25
-24 -8 -24 -12 -50 -9 -57 2 -6 -1 -12 -7 -12 -6 0 -11 -6 -11 -14 0 -7 -7
-19 -15 -26 -8 -7 -12 -16 -9 -21 3 -5 0 -17 -5 -26 -8 -14 -10 -15 -11 -3 0
8 -7 2 -16 -15 -8 -16 -14 -40 -11 -52 2 -14 0 -20 -8 -17 -7 3 -16 -3 -19
-13 -14 -34 -37 -178 -37 -223 0 -43 2 -57 17 -122 4 -18 2 -28 -5 -28 -12 0
-45 59 -37 67 3 3 0 15 -6 27 -11 20 -11 20 -18 1 -4 -11 -6 -50 -4 -87 1 -38
-2 -68 -7 -68 -5 0 -9 -12 -9 -27 0 -23 2 -25 11 -13 8 12 9 11 4 -6 -9 -34 4
-54 34 -51 40 5 53 16 46 40 -5 17 -4 18 4 8 8 -13 13 -11 29 9 l20 24 -4 -39
c-5 -60 -30 -122 -60 -150 -15 -14 -30 -23 -34 -20 -4 2 -20 -9 -35 -25 -26
-28 -28 -35 -26 -97 1 -38 3 -92 3 -122 1 -47 3 -52 15 -35 7 10 13 14 13 8
-1 -14 -26 -44 -37 -44 -8 0 -43 -62 -43 -77 0 -3 9 2 21 13 20 18 20 18 14
-11 -6 -27 -5 -28 7 -13 13 15 15 14 25 -13 8 -21 16 -27 28 -23 10 4 15 14
12 25 -3 10 2 24 11 31 13 11 14 9 8 -17 -4 -16 -12 -35 -19 -40 -25 -21 -37
-56 -36 -103 1 -27 -3 -58 -9 -68 -11 -18 -11 -18 -12 -1 0 10 5 27 11 38 9
17 7 21 -10 26 -16 4 -19 9 -11 23 13 24 13 30 0 30 -5 0 -10 -6 -10 -14 0 -7
-6 -19 -14 -25 -22 -19 -29 4 -11 38 17 34 20 81 5 81 -5 0 -10 -9 -10 -21 0
-11 -4 -17 -10 -14 -9 6 -13 -7 -25 -78 -5 -28 -3 -37 5 -32 7 4 5 -3 -3 -16
-15 -23 -21 -49 -18 -77 1 -9 7 -9 25 3 23 15 25 15 30 -3 4 -11 4 -26 0 -35
-3 -9 2 -20 14 -26 22 -12 31 1 33 42 0 12 3 16 6 10 7 -19 23 -16 23 4 0 9 2
14 5 11 7 -6 -21 -116 -33 -132 -5 -6 -12 -28 -15 -50 -3 -21 -15 -56 -27 -78
-11 -22 -16 -37 -10 -33 5 3 10 -1 10 -9 0 -19 16 -21 23 -3 3 6 6 3 6 -9 1
-11 -6 -29 -14 -40 -8 -10 -15 -31 -15 -46 0 -17 -5 -28 -14 -28 -14 0 -26
-21 -26 -46 0 -9 4 -13 9 -9 27 16 39 -93 16 -141 -11 -24 -13 -39 -5 -59 7
-18 7 -33 -1 -46 -7 -15 -7 -29 1 -52 7 -22 7 -33 0 -35 -5 -2 -10 -8 -10 -13
0 -4 7 -6 16 -2 10 4 14 13 10 28 -7 26 11 85 26 85 5 0 7 -12 3 -29 -14 -67
-14 -121 1 -121 8 0 14 -4 14 -10 0 -5 4 -10 9 -10 5 0 6 20 3 45 -3 30 -1 45
7 45 6 0 11 -8 11 -18 0 -10 4 -22 9 -27 13 -14 17 -57 7 -74 -10 -15 -35
-125 -36 -152 0 -10 11 -20 25 -23 18 -5 26 -15 31 -42 4 -21 2 -39 -4 -43 -5
-3 -8 -31 -6 -62 3 -63 -4 -102 -17 -93 -5 3 -9 -4 -9 -15 0 -12 -7 -21 -16
-21 -11 0 -14 6 -9 20 3 11 2 20 -3 20 -12 0 -26 -30 -23 -48 3 -18 -18 -42
-36 -42 -7 0 -13 7 -11 16 2 10 -3 19 -9 21 -7 3 -13 0 -13 -6 0 -7 -10 -9
-25 -5 -28 7 -33 -7 -9 -27 14 -11 14 -13 0 -21 -9 -5 -16 -16 -16 -24 0 -8 5
-12 10 -9 6 3 13 -2 17 -12 4 -10 14 -23 22 -30 14 -10 14 -14 2 -25 -11 -11
-14 -11 -18 0 -4 10 -8 10 -19 1 -11 -9 -14 -8 -14 5 0 9 -4 16 -9 16 -4 0 -6
-11 -3 -25 2 -14 11 -25 18 -25 17 0 17 -5 2 -33 -10 -20 -10 -21 5 -8 10 7
17 19 17 26 0 7 7 15 15 19 10 3 15 -1 15 -14 0 -10 5 -22 11 -26 8 -5 10 3 7
25 -3 18 -1 34 4 37 4 3 8 0 8 -6 0 -6 11 -15 25 -20 35 -13 34 -50 -1 -50
-23 0 -24 -1 -10 -16 21 -21 21 -23 -11 -36 -46 -18 -77 -19 -90 -1 -10 13
-12 11 -10 -13 1 -20 -3 -29 -13 -29 -10 0 -14 8 -12 22 2 13 -1 23 -5 23 -5
0 -9 -9 -10 -20 -2 -25 -29 -53 -46 -47 -9 4 -9 6 1 6 26 2 10 21 -18 21 -16
0 -30 -4 -30 -10 0 -5 -11 -10 -25 -10 -14 0 -25 -4 -25 -10 0 -5 -6 -10 -14
-10 -7 0 -19 -7 -26 -15 -13 -16 -45 -21 -35 -6 5 10 -27 8 -55 -2 -8 -3 -33
-8 -55 -12 -22 -3 -49 -8 -60 -9 -64 -12 -168 -26 -220 -30 -33 -3 -95 -17
-138 -31 -43 -14 -82 -25 -88 -25 -6 0 -48 -18 -95 -40 -46 -23 -89 -38 -95
-35 -5 4 -16 2 -23 -5 -8 -6 -40 -13 -73 -16 -32 -4 -66 -10 -75 -15 -9 -5
-21 -9 -25 -8 -4 1 -23 -2 -40 -6 l-33 -7 0 -1129 0 -1129 2195 0 c1457 0
2195 3 2195 10 0 6 8 10 18 11 15 0 102 97 102 114 0 3 11 16 25 29 14 13 25
31 25 40 0 9 3 16 8 16 4 0 8 18 8 40 1 22 6 46 12 53 9 10 8 17 -1 26 -9 11
-9 14 1 18 6 3 9 9 6 15 -3 5 2 15 11 22 14 10 28 9 73 -6 121 -40 183 -145
184 -310 l0 -78 340 0 339 0 48 40 c26 22 50 40 53 40 3 0 23 17 45 38 140
135 326 307 373 344 49 39 214 148 225 148 2 0 52 30 112 67 59 36 137 84 173
106 97 59 220 147 220 157 0 5 6 7 13 4 7 -2 22 5 34 16 12 11 31 20 42 20 10
0 22 7 25 16 4 9 9 14 12 11 4 -3 13 0 20 8 8 7 24 11 36 9 21 -4 21 -4 -2 7
-14 7 -28 13 -32 13 -3 1 -9 4 -13 8 -4 3 0 5 9 4 8 -1 19 -5 22 -9 15 -15 63
-6 120 21 32 16 74 34 92 41 l32 13 0 434 c0 406 -1 434 -17 435 -15 0 -15 2
2 8 19 8 19 8 -2 15 -13 4 -27 4 -33 1 -5 -3 -10 -2 -10 3 0 4 -37 14 -82 21
-118 18 -189 32 -207 41 -26 13 -150 33 -166 26 -9 -3 -13 -2 -10 4 4 6 -7 7
-27 4 -25 -4 -29 -3 -18 5 12 8 7 11 -22 11 -20 0 -40 5 -43 10 -3 6 -16 10
-28 10 -20 -1 -20 -2 -4 -11 18 -10 24 -39 8 -39 -20 0 -41 12 -35 21 9 15
-15 49 -31 43 -9 -4 -15 0 -15 10 0 9 -6 16 -12 17 -7 0 -44 15 -83 33 -48 23
-72 30 -77 22 -6 -8 -8 -8 -8 0 0 7 -12 15 -27 19 -15 3 -30 10 -33 14 -10 14
-60 41 -75 41 -8 0 -15 5 -15 12 0 9 -3 9 -12 0 -20 -20 -40 -15 -28 7 5 11
10 29 10 40 0 11 8 26 18 33 11 8 22 36 28 74 13 79 10 85 -27 72 -32 -11 -49
-4 -33 12 6 6 8 24 6 41 -3 17 -7 27 -11 23 -3 -5 -15 -14 -26 -20 -11 -6 -24
-24 -30 -40 -5 -16 -16 -33 -23 -37 -7 -5 -10 -12 -7 -17 3 -5 1 -11 -5 -15
-5 -3 -10 -2 -10 4 0 5 -3 16 -6 25 -4 11 -1 16 10 16 9 0 16 6 16 14 0 7 12
35 26 62 22 41 24 52 14 69 -9 15 -6 14 14 -5 45 -45 56 -51 75 -45 14 4 21 0
23 -12 3 -10 4 5 4 33 -1 29 -4 50 -8 47 -5 -2 -8 -15 -8 -29 0 -23 -1 -24
-16 -9 -13 12 -13 19 -4 30 6 8 9 19 5 25 -3 6 1 24 9 41 18 36 13 52 -15 44
-29 -9 -49 39 -26 63 9 9 17 11 17 5 0 -6 -6 -14 -12 -16 -7 -3 -8 -6 -3 -6
28 -2 39 24 36 88 -1 18 -5 22 -21 18 -17 -4 -18 -2 -9 15 6 11 8 22 5 26 -3
3 -6 0 -6 -7 0 -8 -5 -7 -16 3 -20 21 -15 61 9 60 12 -1 17 5 17 22 0 13 -5
24 -11 24 -7 0 -8 12 -4 32 8 35 23 51 39 41 5 -4 7 3 4 15 -4 12 -2 20 3 16
5 -3 9 4 9 15 0 12 5 21 10 21 6 0 10 5 10 11 0 5 -4 7 -10 4 -12 -8 -13 5 -1
24 5 7 14 10 20 7 6 -4 11 -2 11 3 0 6 -9 11 -21 11 -16 0 -19 4 -15 17 6 15
-8 32 -25 33 -12 0 -19 -44 -8 -50 13 -8 -6 -60 -21 -60 -7 0 -9 -8 -5 -19 3
-10 -1 -24 -10 -31 -8 -7 -15 -27 -15 -44 0 -17 -5 -49 -12 -71 l-12 -40 -7
40 c-6 37 1 75 22 120 12 24 15 123 4 147 -3 9 -1 26 5 38 8 15 8 20 1 16 -28
-18 -6 14 44 64 31 30 67 72 81 93 13 20 31 37 39 37 17 0 20 -16 5 -25 -12
-8 -13 -25 -1 -25 5 0 11 9 14 21 4 14 10 18 18 13 9 -5 10 -2 5 12 -5 10 -10
28 -13 39 -4 16 -3 17 6 5 8 -12 13 -12 30 4 22 20 28 12 11 -14 -9 -15 4 -30
27 -30 18 0 63 52 63 72 0 10 5 18 10 18 6 0 24 12 40 26 16 15 40 33 52 40
75 41 129 63 173 69 l50 7 -35 -22 c-37 -23 -80 -67 -80 -82 0 -5 5 -6 12 -2
7 5 9 0 6 -14 -4 -14 -2 -19 7 -16 8 3 11 14 7 27 -5 19 -3 20 11 9 12 -10 21
-11 37 -2 20 11 21 10 15 -12 l-6 -23 20 22 c10 13 26 23 35 23 9 0 16 4 16 8
0 5 13 9 29 10 60 1 70 15 69 90 -2 91 10 360 22 512 6 69 11 139 13 155 l2
30 -55 0 c-30 0 -76 -4 -102 -8 l-48 -7 0 33 c0 17 4 37 8 42 4 6 47 10 100
10 105 0 100 -4 105 91 1 29 5 50 8 48 4 -2 10 29 14 68 3 39 13 108 21 152 9
45 17 117 19 161 3 44 16 118 29 164 18 61 22 90 15 108 -18 47 -11 98 16 121
14 12 25 32 25 44 1 13 7 34 14 47 8 14 11 32 8 40 -3 9 -1 12 6 7 17 -10 15
0 -2 17 -19 19 -114 3 -132 -21 -7 -9 -15 -14 -18 -11 -8 7 -9 56 -3 106 4 33
3 41 -9 36 -18 -7 -18 5 1 40 8 15 11 25 6 23 -4 -3 -8 1 -8 9 0 8 4 12 8 10
4 -3 7 11 6 30 -1 19 -4 35 -7 35 -4 0 -4 15 -1 33 7 36 47 94 58 83 11 -10 5
-100 -6 -104 -6 -2 -7 -10 -4 -19 3 -8 0 -19 -7 -23 -15 -10 -23 -80 -8 -80 7
0 8 -12 4 -32 -20 -94 -11 -132 14 -58 7 22 17 40 22 40 12 0 15 1 50 10 22 7
36 6 46 -2 8 -7 29 -11 47 -9 26 2 35 -2 40 -19 7 -21 -14 -80 -27 -80 -5 0
-8 -4 -8 -10 0 -5 5 -10 11 -10 7 0 17 -8 24 -17 11 -15 13 10 14 141 l1 158
-28 -7 c-15 -4 -48 -9 -73 -10 -25 -1 -51 -5 -57 -9 -8 -5 -12 2 -12 19 0 18
4 24 13 19 8 -5 8 -2 -2 9 -7 9 -12 17 -10 18 12 2 50 8 92 14 26 3 45 10 42
15 -8 13 -104 23 -118 12 -9 -8 -12 6 -13 59 -2 62 0 69 15 64 32 -10 62 83
35 109 -8 9 -11 16 -6 16 6 0 12 7 16 15 7 19 -3 47 -15 39 -5 -3 -6 -10 -3
-16 4 -5 -5 -2 -20 7 -28 19 -32 30 -15 40 6 4 7 19 4 37 -5 20 -4 28 3 24 12
-7 28 32 17 42 -4 4 -13 -2 -21 -13 -14 -18 -15 -13 -10 52 4 75 -2 93 -26 69
-8 -8 -25 -12 -39 -9 -17 3 -28 -2 -37 -17 -8 -12 -9 -19 -3 -15 7 3 11 -2 11
-14 0 -11 4 -22 8 -25 11 -6 2 -86 -9 -86 -6 0 -9 -8 -7 -17 2 -10 -2 -17 -8
-16 -7 1 -20 -7 -29 -17 -14 -16 -17 -35 -16 -92 1 -40 6 -75 12 -76 6 -3 5
-10 -2 -19 -10 -12 -10 -16 1 -23 19 -12 31 8 23 37 -3 16 -1 23 8 23 15 0 17
-75 3 -137 -7 -36 -13 -40 -32 -21 -14 14 -15 4 -3 -40 6 -20 6 -32 0 -32 -5
0 -9 -8 -9 -17 0 -32 -24 -83 -40 -83 -9 0 -11 -3 -4 -8 13 -8 6 -82 -7 -82
-5 0 -9 -11 -9 -24 0 -35 -14 -67 -44 -99 -14 -15 -26 -37 -26 -48 0 -23 -25
-75 -48 -102 -9 -10 -17 -26 -17 -35 -1 -38 -18 -113 -26 -118 -14 -8 -11 40
3 54 9 9 9 15 0 24 -8 8 -8 17 -1 30 6 11 8 26 5 34 -3 8 1 14 9 14 8 0 16 8
16 18 1 9 2 22 3 27 0 6 18 38 39 71 37 62 45 80 28 70 -5 -3 0 22 11 56 10
35 17 72 14 84 -4 14 -1 21 9 21 8 0 15 -4 15 -9 0 -4 5 -8 10 -8 6 0 4 11 -5
24 -8 13 -13 30 -10 38 4 9 -1 18 -9 21 -11 5 -22 -6 -36 -35 -11 -22 -17 -44
-15 -49 8 -12 -15 -109 -26 -109 -5 0 -9 -11 -9 -24 0 -14 -5 -28 -11 -32 -9
-5 -10 1 -5 22 12 45 12 46 -1 51 -7 3 -13 -2 -13 -11 0 -9 -7 -16 -16 -16
-10 0 -14 -6 -10 -15 3 -8 0 -14 -6 -12 -7 1 -12 -2 -13 -8 -3 -33 -17 -65
-26 -59 -7 4 -7 10 -1 16 12 12 4 40 -9 32 -5 -3 -9 -14 -9 -24 0 -10 -6 -23
-13 -27 -21 -13 -45 -84 -51 -146 -2 -32 -9 -64 -15 -71 -5 -6 -10 -21 -10
-31 -2 -75 -29 -216 -44 -226 -5 -4 -7 -17 -4 -28 4 -15 -1 -26 -14 -34 -10
-6 -19 -18 -19 -26 0 -11 3 -11 15 -1 20 17 19 6 -1 -15 -11 -11 -14 -24 -9
-43 4 -15 10 -21 12 -14 6 17 23 15 23 -2 0 -24 -30 -48 -45 -36 -9 8 -12 0
-11 -35 1 -25 4 -45 9 -45 4 0 7 -4 7 -10 0 -5 -8 -6 -17 -3 -13 5 -15 2 -10
-11 8 -21 4 -20 -83 14 -220 86 -537 177 -800 229 -277 55 -288 56 -634 56
-316 0 -329 1 -336 19 -3 11 -15 23 -26 27 -16 6 -16 8 -2 8 24 1 11 31 -13
31 -10 0 -19 7 -19 15 0 8 -7 15 -15 15 -8 0 -15 5 -15 11 0 5 4 8 9 5 5 -3
11 0 14 8 3 8 -2 16 -14 19 -11 3 -19 14 -20 29 0 12 -3 17 -6 11 -7 -18 -23
-16 -23 2 0 8 -5 15 -11 15 -5 0 -7 4 -4 10 5 7 -16 67 -31 88 -1 2 -13 0 -27
-3 -31 -8 -62 -63 -55 -98 3 -15 1 -24 -3 -21 -5 3 -9 14 -9 25 0 10 -5 19
-10 19 -7 0 -8 -13 -4 -36 4 -23 3 -39 -4 -43 -6 -4 -12 -21 -14 -39 -3 -43
-39 -88 -63 -79 -14 6 -15 10 -5 22 10 12 9 15 -8 15 -38 0 -49 9 -44 40 4 29
-10 41 -23 20 -9 -15 -35 0 -35 21 0 10 -5 19 -11 19 -8 0 -8 5 1 15 11 13 8
17 -19 26 -30 11 -43 29 -19 29 15 0 0 15 -15 15 -7 0 -17 -6 -22 -13 -19 -24
-65 -4 -72 30 -5 27 -9 29 -39 26 -26 -3 -35 0 -40 15 -7 21 -28 18 -32 -6 -2
-10 3 -17 12 -17 8 0 18 -4 21 -10 3 -5 0 -7 -9 -4 -8 3 -24 0 -36 -6 -18 -10
-21 -10 -14 2 13 21 16 58 4 58 -6 0 -8 5 -5 10 4 6 10 8 15 5 12 -7 22 27 12
37 -6 6 -20 0 -35 -15 -22 -19 -37 -24 -79 -23 -48 1 -53 3 -52 24 1 23 -10
29 -21 12 -3 -6 -15 -1 -28 11 -19 17 -20 21 -7 30 12 8 11 9 -6 5 -11 -4 -29
0 -39 8 -17 12 -18 18 -8 49 12 41 8 50 -32 65 -16 6 -24 11 -17 11 7 1 10 6
7 11 -4 6 -11 8 -16 5 -5 -4 -9 1 -9 9 0 8 6 19 14 23 8 4 15 17 17 28 3 12
14 21 27 23 27 4 37 24 27 50 -11 25 -13 52 -3 52 4 0 8 20 8 45 0 25 5 45 10
45 6 0 10 -7 8 -16 -2 -10 3 -19 10 -21 6 -3 12 2 12 10 0 8 7 17 15 21 13 4
14 2 5 -14 -6 -11 -8 -20 -5 -20 8 0 45 39 45 49 0 5 7 14 15 21 12 10 15 9
15 -6 0 -16 2 -17 10 -4 9 13 10 13 10 0 0 -8 11 -20 24 -26 20 -9 23 -9 18 8
-6 24 6 23 29 -4 14 -17 17 -18 13 -5 -5 13 -1 17 21 17 22 0 25 -3 20 -20 -6
-19 9 -28 19 -12 3 5 20 7 38 5 25 -3 29 -2 18 6 -19 14 -4 14 21 1 15 -9 21
-7 26 6 6 15 7 15 20 -2 7 -10 13 -12 13 -6 0 7 5 12 10 12 6 0 10 -9 10 -19
0 -11 5 -23 10 -26 6 -3 10 -1 10 6 0 7 9 9 23 6 20 -6 21 -5 4 8 -12 9 -15
15 -7 20 9 6 44 -17 70 -46 3 -3 14 -6 25 -7 11 -1 35 -4 53 -6 17 -1 35 -6
39 -9 3 -4 13 -7 21 -7 8 0 29 -7 48 -16 19 -9 43 -14 54 -11 11 3 20 2 20 -3
0 -4 7 -11 16 -14 22 -8 73 30 80 60 3 13 10 24 15 24 5 0 9 9 9 20 0 13 -7
20 -18 20 -20 0 -46 45 -36 61 3 5 -9 23 -26 39 -19 17 -29 34 -24 41 5 9 1
10 -14 7 -16 -4 -22 -2 -22 9 0 11 7 14 25 9 22 -6 25 -3 25 19 0 14 4 25 8
25 5 0 7 20 6 46 -3 41 -1 44 17 39 26 -9 56 2 63 23 3 9 9 23 12 31 4 8 2 11
-4 8 -5 -4 -15 0 -21 7 -9 10 -9 16 -1 21 6 4 10 14 9 23 -1 10 1 25 6 35 5
13 -1 29 -24 58 -18 21 -27 39 -21 39 5 0 10 5 10 10 0 6 -7 10 -16 10 -13 0
-13 2 -2 13 7 8 20 16 27 18 13 5 18 18 23 61 1 9 4 15 7 13 2 -3 10 0 17 6 9
7 19 7 34 -1 21 -11 22 -10 16 39 -4 41 -2 51 9 51 8 0 15 7 15 16 0 11 -6 14
-21 9 -15 -5 -19 -4 -15 4 4 6 3 11 -3 11 -5 0 -15 -8 -20 -17 -9 -16 -10 -16
-11 -1 0 9 6 18 12 21 9 3 6 10 -9 22 -13 9 -23 21 -23 26 0 5 10 1 22 -11 26
-24 46 -27 27 -4 -11 13 -10 17 4 25 9 6 17 20 17 32 0 17 -2 19 -10 7 -15
-24 -21 -5 -8 27 7 16 18 28 23 26 6 -2 12 9 13 24 1 19 -1 24 -7 14 -5 -8
-11 -9 -15 -3 -3 6 -2 14 4 17 8 5 7 11 -1 21 -6 8 -9 25 -7 39 3 14 1 25 -3
25 -5 0 -9 8 -9 18 -1 16 -1 16 -14 0 -14 -19 -56 -25 -56 -8 0 5 6 7 14 4 8
-3 21 5 29 17 19 26 43 20 56 -14 5 -14 16 -27 25 -30 10 -4 13 -1 10 8 -5 12
0 12 28 5 18 -6 36 -10 40 -10 13 0 9 18 -8 35 -9 9 -14 19 -10 22 8 8 37 -17
31 -28 -3 -4 3 -13 14 -18 15 -9 20 -7 24 9 3 11 1 23 -4 26 -17 10 -9 21 24
30 22 7 33 17 35 32 2 12 7 20 12 17 10 -6 31 50 22 62 -4 4 0 2 8 -4 22 -20
32 -15 20 8 -10 19 -9 20 13 17 39 -5 79 22 74 49 -4 19 -1 22 18 17 13 -3 26
-1 29 5 4 6 20 11 37 11 16 0 29 5 29 10 0 6 -4 10 -10 10 -5 0 -10 7 -10 15
0 14 33 21 83 16 10 -2 17 4 17 14 0 12 4 13 18 6 21 -11 36 -4 45 22 7 18 57
25 57 7 0 -6 9 -6 22 -1 16 6 27 4 36 -8 12 -14 13 -14 9 -1 -14 45 76 89 186
91 29 0 41 6 54 27 9 15 18 29 19 31 2 1 13 -4 25 -12 14 -10 33 -14 51 -10
16 3 40 0 53 -7 26 -14 98 -7 103 10 6 16 22 12 22 -5 0 -18 17 -19 53 -2 17
8 25 18 22 28 -8 25 34 18 63 -10 22 -22 26 -23 37 -8 11 16 28 16 93 2 26 -6
31 -11 27 -26 -6 -19 33 -69 55 -69 13 0 13 13 -1 27 -14 14 -3 33 17 33 10 0
13 6 9 19 -7 25 40 37 49 12 3 -9 11 -24 18 -33 16 -23 -1 -54 -28 -51 -11 2
0 -7 24 -19 23 -12 42 -28 42 -35 0 -7 6 -13 13 -13 8 0 19 -11 27 -24 9 -17
20 -24 39 -23 18 1 29 -5 36 -20 5 -13 15 -23 21 -23 7 0 11 -19 10 -51 0 -31
4 -55 12 -61 10 -9 12 -5 8 18 -5 26 -3 30 18 29 26 0 49 -15 24 -15 -9 0 -18
-11 -20 -25 -3 -14 -2 -25 1 -25 3 0 11 -12 18 -26 10 -22 10 -24 -3 -14 -12
10 -14 8 -14 -14 0 -28 25 -45 41 -29 13 13 53 -23 61 -54 8 -29 2 -29 -26 2
-31 33 -48 17 -33 -31 10 -32 11 -33 29 -17 15 13 23 14 43 5 14 -6 25 -16 25
-22 0 -6 10 -8 25 -4 19 5 25 2 25 -10 0 -10 8 -16 22 -16 17 0 19 -3 10 -12
-14 -14 -17 -72 -3 -64 15 9 23 -48 11 -78 -7 -20 -6 -46 5 -99 8 -40 15 -76
15 -81 0 -4 7 -5 16 -2 15 6 15 4 3 -10 -12 -15 -12 -17 1 -12 8 2 16 19 18
37 2 22 0 31 -7 26 -23 -14 0 50 24 67 6 5 5 8 -2 8 -10 0 -10 6 -1 25 6 14
16 25 22 25 7 0 7 3 0 10 -12 12 -6 70 6 70 4 0 13 -13 19 -30 7 -21 7 -30 -1
-30 -5 0 -8 -7 -4 -15 3 -8 1 -15 -3 -15 -5 0 -7 -10 -4 -21 5 -18 7 -19 15
-5 13 22 28 20 28 -4 0 -19 25 -38 36 -28 8 9 -8 67 -19 65 -19 -3 -21 45 -3
55 9 5 16 21 16 35 0 18 4 24 15 20 8 -4 17 -2 20 3 4 7 13 7 24 0 10 -5 21
-7 24 -4 5 5 17 -39 23 -81 1 -11 3 -22 3 -24 1 -2 7 2 15 8 11 9 19 9 35 -1
24 -14 36 -38 19 -38 -7 0 -6 -5 2 -15 10 -12 9 -15 -7 -15 -16 0 -19 5 -15
30 4 30 -3 37 -23 22 -14 -10 -17 -32 -5 -32 6 0 10 -14 10 -31 0 -28 2 -30
17 -18 9 8 24 13 33 11 23 -4 31 30 14 62 -11 22 -11 26 2 26 8 0 14 5 14 11
0 5 -4 7 -10 4 -5 -3 -10 -1 -10 4 0 6 5 11 12 11 6 0 8 3 5 7 -4 3 -2 12 3
18 8 9 6 14 -4 18 -15 6 -15 31 -1 145 4 30 2 32 -18 27 -16 -5 -18 -4 -8 3
19 14 6 90 -26 147 -21 39 -24 53 -18 95 6 46 5 50 -13 50 -11 0 -23 6 -25 13
-4 9 -8 8 -16 -3 -14 -20 -14 -4 0 21 10 20 11 20 25 2 14 -17 15 -16 8 7 -3
14 -15 33 -25 43 -15 14 -16 22 -8 44 11 28 6 53 -10 53 -6 0 -8 -8 -4 -17 5
-15 3 -16 -7 -6 -11 11 -11 17 1 39 11 21 11 28 2 31 -7 3 -13 13 -13 24 0 11
-7 19 -16 19 -11 0 -15 6 -11 20 3 11 1 18 -4 14 -5 -3 -9 1 -9 9 0 10 -7 13
-20 10 -11 -3 -27 0 -35 7 -20 16 -20 44 0 37 8 -4 17 -1 21 5 4 6 3 8 -3 5
-6 -4 -15 -1 -21 6 -13 17 -7 63 8 59 6 -1 10 3 7 10 -2 7 -10 12 -16 11 -10
-3 -13 8 -15 62 -1 22 -27 65 -38 65 -5 0 -8 -7 -8 -15 0 -8 -4 -15 -10 -15
-5 0 -10 6 -10 14 0 7 -7 19 -15 26 -12 10 -15 10 -15 -1 0 -31 -34 23 -39 62
-4 26 -12 44 -21 46 -12 4 -12 3 -2 -5 11 -7 8 -11 -10 -15 -12 -4 -26 -7 -29
-7 -10 0 -31 55 -27 71 2 8 -3 13 -9 12 -13 -3 -17 9 -14 34 1 10 -461 13
-2178 13 l-2179 0 -12 -34z m690 -213 c0 -16 4 -22 13 -18 6 4 1 -3 -12 -14
-27 -24 -25 -30 12 -33 22 -2 26 -6 22 -23 -3 -11 -2 -14 1 -7 7 15 31 16 36
0 3 -8 12 -4 26 10 21 21 23 21 49 4 29 -18 37 -51 16 -65 -17 -11 -16 -27 3
-66 19 -37 13 -61 -16 -61 -14 0 -20 7 -20 23 0 17 -2 19 -9 8 -6 -9 -6 -22 0
-33 8 -15 6 -18 -11 -18 -13 0 -20 -7 -20 -20 0 -13 -7 -20 -20 -20 -24 0 -39
-29 -20 -40 7 -4 8 -10 3 -13 -5 -4 -8 -20 -5 -37 3 -22 0 -30 -11 -30 -9 0
-18 -4 -21 -9 -9 -13 4 -42 18 -40 26 3 38 -2 33 -14 -4 -10 2 -13 19 -9 31 6
31 -11 -1 -32 -23 -15 -25 -15 -25 1 -1 15 -4 14 -21 -6 -16 -20 -22 -22 -29
-11 -11 17 -4 30 16 30 19 0 18 16 -2 24 -11 4 -18 -1 -21 -14 -3 -11 -9 -20
-14 -20 -5 0 -16 -14 -24 -31 -16 -30 -16 -30 6 -19 19 10 25 8 48 -15 14 -15
20 -25 14 -21 -13 7 -14 -2 -17 -81 -1 -11 -4 -25 -8 -29 -13 -12 -9 -24 7
-24 9 0 15 -9 15 -24 0 -31 -14 -40 -30 -21 -9 10 -9 15 -1 15 6 0 3 9 -6 20
-15 17 -19 18 -33 5 -34 -30 -56 -13 -40 31 16 42 -5 55 -23 13 -12 -29 -12
-35 0 -42 12 -7 12 -12 -3 -28 -13 -14 -20 -16 -30 -8 -16 13 -37 2 -27 -14
12 -20 10 -49 -4 -54 -7 -3 -10 -9 -7 -14 3 -5 -2 -9 -10 -9 -8 0 -17 -9 -21
-19 -3 -11 -13 -22 -21 -25 -9 -3 -12 -2 -9 5 4 5 2 15 -3 22 -5 7 -8 20 -7
29 2 10 -1 21 -7 24 -6 4 -5 10 3 15 11 7 8 15 -13 34 -16 13 -28 31 -28 40 0
10 -7 15 -17 13 -30 -6 -26 -32 7 -47 23 -10 28 -16 20 -26 -6 -7 -7 -20 -4
-29 9 -23 -25 -47 -48 -35 -15 8 -18 6 -18 -13 -1 -25 -32 -68 -49 -68 -6 0
-11 -4 -11 -10 0 -5 9 -10 20 -10 11 0 20 -4 20 -10 0 -5 -4 -10 -10 -10 -5 0
-10 -9 -10 -20 0 -25 9 -25 26 -2 10 14 15 15 25 5 10 -11 10 -13 0 -13 -7 0
-9 -4 -6 -10 3 -5 -6 -12 -20 -16 -28 -7 -31 -14 -13 -32 9 -9 7 -13 -5 -18
-23 -9 -21 -31 3 -37 11 -3 20 -10 20 -16 0 -5 -13 -3 -30 7 -16 9 -30 20 -30
25 0 4 -4 7 -9 7 -5 0 -8 -14 -6 -31 3 -24 0 -32 -15 -36 -21 -5 -28 -23 -10
-23 17 0 11 -29 -10 -50 -11 -11 -22 -32 -26 -47 -3 -16 -13 -33 -21 -40 -11
-8 -13 -20 -9 -38 4 -17 3 -24 -4 -20 -5 3 -10 1 -10 -4 0 -6 4 -11 10 -11 13
0 28 32 22 49 -7 21 19 8 37 -19 15 -22 15 -24 -1 -17 -14 5 -18 1 -18 -14 0
-11 4 -18 9 -15 5 3 11 -10 13 -29 2 -19 0 -35 -6 -35 -5 0 -7 -3 -3 -6 3 -3
2 -16 -3 -29 -5 -14 -5 -26 2 -33 10 -10 -9 -52 -24 -52 -15 0 -8 29 10 39 15
9 15 10 -6 11 -21 0 -22 -4 -19 -54 2 -35 -1 -54 -7 -53 -6 1 -11 -10 -11 -25
1 -16 -3 -28 -7 -28 -4 0 -15 -11 -24 -25 -18 -28 -36 -98 -23 -89 5 3 9 3 9
0 0 -6 -38 -75 -50 -91 -4 -5 -10 -18 -13 -27 -5 -13 -2 -15 11 -11 15 6 15 4
-1 -14 -17 -20 -26 -21 -160 -16 -78 3 -143 6 -144 7 -5 5 -3 176 2 226 4 30
7 73 8 95 2 40 16 65 37 65 6 0 9 4 5 10 -3 5 7 17 22 27 47 30 63 47 63 65 0
10 -4 18 -10 18 -17 0 -11 26 10 45 11 10 25 35 30 57 6 22 17 38 25 38 8 0
15 -4 15 -10 0 -5 7 -10 15 -10 8 0 15 7 15 15 0 9 -6 12 -15 9 -12 -5 -15 3
-15 41 0 45 1 47 24 41 21 -5 25 -3 23 16 -1 23 -14 38 -32 38 -5 0 -3 -5 5
-10 12 -8 11 -10 -6 -10 -16 0 -21 6 -22 30 0 16 3 32 8 35 4 3 6 13 3 24 -3
11 2 21 11 24 9 4 16 11 16 17 0 6 -7 6 -20 -2 -10 -7 -23 -9 -27 -4 -4 4 0
12 9 17 10 5 15 16 12 23 -3 8 -1 17 5 21 8 4 8 12 0 27 -9 17 -9 19 7 10 13
-8 22 -5 35 12 9 11 14 25 11 31 -7 11 -11 47 -4 41 5 -6 42 32 42 42 0 5 9
17 20 27 12 11 20 31 20 50 0 21 6 35 16 39 9 4 14 16 13 33 -1 16 -1 37 0 48
1 17 3 18 11 5 9 -13 10 -13 10 1 0 8 -6 21 -12 27 -10 10 -10 15 2 22 8 5 14
25 14 49 1 23 5 41 10 41 4 0 6 11 4 25 -3 14 1 30 9 37 8 6 13 21 12 32 -2
35 1 47 10 42 5 -3 13 7 19 22 5 15 29 47 52 70 28 27 40 47 36 57 -4 11 2 19
19 25 14 5 25 12 25 16 0 3 -7 3 -16 0 -10 -4 -14 -1 -11 6 2 7 12 14 23 14
10 1 21 3 24 4 3 1 16 3 30 4 14 1 37 14 52 29 22 22 26 33 21 59 -5 24 -3 30
8 26 8 -3 13 -13 13 -22 -1 -9 3 -15 10 -13 6 2 10 16 9 31 -1 14 2 26 7 26 5
0 19 18 31 40 21 38 37 46 78 41 7 -2 11 1 8 6 -3 4 8 8 24 9 24 1 29 -3 29
-23z m-680 -2097 c14 -2 66 -9 115 -16 50 -6 131 -21 180 -32 50 -10 101 -21
115 -23 87 -12 544 -144 635 -184 11 -5 45 -19 75 -31 97 -39 251 -123 398
-218 243 -157 368 -210 587 -249 71 -12 127 -14 264 -9 96 4 177 9 182 11 4 3
83 5 176 5 182 0 377 -21 546 -59 26 -6 64 -14 85 -17 66 -9 333 -82 475 -129
262 -86 463 -178 543 -248 l32 -28 -28 -108 c-34 -129 -69 -193 -155 -285 -11
-12 -28 -51 -70 -160 -69 -178 -188 -390 -270 -481 -121 -134 -202 -199 -321
-255 -288 -138 -667 -114 -999 63 -234 125 -391 371 -464 727 -24 119 -30 165
-36 315 -6 152 -19 214 -54 263 -36 49 -90 75 -165 78 -109 5 -157 -37 -282
-246 -41 -69 -87 -139 -102 -156 -15 -17 -43 -50 -62 -74 -60 -74 -172 -181
-251 -240 -205 -152 -387 -201 -635 -171 -428 52 -723 234 -854 527 -63 139
-91 291 -95 518 -2 119 2 185 20 387 4 37 2 84 -4 106 -24 89 -24 189 -1 285
27 110 34 126 63 139 20 8 296 5 357 -5z m4497 -695 c3 -11 11 -17 18 -15 10
4 12 -7 9 -45 -4 -44 -3 -50 12 -44 14 5 15 3 6 -14 -6 -11 -8 -24 -4 -28 4
-5 1 -5 -5 -1 -9 5 -13 -1 -13 -18 0 -14 -5 -26 -11 -26 -5 0 -7 -5 -3 -12 4
-6 1 -16 -7 -22 -18 -14 -41 -66 -29 -66 5 0 12 5 15 10 3 6 19 10 36 10 27 0
29 -2 29 -40 0 -37 -2 -40 -27 -42 -16 0 -36 -1 -45 0 -10 1 -18 -3 -18 -9 0
-5 -4 -8 -9 -5 -5 3 -12 -14 -15 -38 -8 -54 -23 -54 -92 -2 -26 20 -52 36 -59
36 -7 0 -18 6 -24 14 -13 16 8 39 31 34 7 -2 14 0 16 5 1 4 9 21 18 38 18 36
12 48 -13 28 -15 -11 -16 -11 -5 1 6 8 12 24 12 36 0 13 15 35 35 53 19 17 35
39 35 50 0 11 8 28 19 38 10 10 22 29 26 43 15 50 52 69 62 31z m-2567 -471
c0 -5 6 -9 12 -7 27 5 57 -86 63 -189 8 -146 15 -222 26 -289 58 -355 182
-606 383 -774 73 -60 295 -167 410 -197 150 -39 374 -49 520 -24 128 23 265
79 386 159 57 38 62 40 56 19 -3 -13 -9 -34 -12 -48 -5 -24 -5 -24 10 -6 21
26 31 13 20 -26 -10 -33 -34 -51 -34 -24 0 9 -5 16 -10 16 -6 0 -14 10 -19 22
-7 20 -9 20 -24 -12 -20 -39 -22 -60 -6 -60 8 0 8 -4 -1 -15 -6 -8 -8 -20 -4
-26 4 -8 3 -9 -4 -5 -13 8 -74 -52 -69 -68 6 -18 27 -18 27 1 0 21 25 61 34
53 5 -5 -13 -90 -21 -100 -2 -2 -8 2 -13 10 -7 11 -12 12 -21 3 -6 -6 -18 -9
-25 -6 -8 3 -14 0 -14 -6 0 -21 -2 -26 -13 -40 -13 -15 -16 -28 -24 -94 -5
-40 -8 -45 -20 -35 -11 9 -16 9 -24 -3 -5 -8 -9 -19 -9 -25 0 -7 -9 -14 -20
-17 -13 -3 -20 -14 -20 -30 0 -14 -5 -29 -11 -32 -5 -4 -8 -12 -6 -18 6 -18
-12 -47 -28 -47 -13 0 -21 -27 -16 -54 1 -6 5 -22 8 -38 6 -31 -13 -40 -24
-10 -15 39 -43 49 -43 15 0 -22 -39 -103 -50 -103 -6 0 -10 5 -10 11 0 5 -5 7
-10 4 -6 -3 -13 1 -16 9 -9 23 -21 19 -28 -9 -4 -14 -11 -25 -16 -25 -6 0 -10
-7 -10 -15 0 -10 -7 -15 -17 -13 -13 2 -22 -9 -32 -39 -14 -40 -34 -60 -30
-30 4 34 -1 40 -20 23 -17 -16 -18 -20 -5 -46 8 -15 22 -31 32 -35 16 -6 16
-7 -1 -20 -16 -12 -21 -11 -38 6 -10 10 -16 24 -14 32 4 8 -3 13 -17 14 -18 2
-20 0 -8 -8 13 -8 13 -11 -2 -20 -10 -5 -18 -15 -18 -22 0 -11 -39 -42 -50
-39 -12 2 -40 -33 -40 -50 0 -10 -4 -18 -10 -18 -5 0 -10 5 -10 10 0 6 -4 10
-10 10 -5 0 -10 -10 -10 -21 0 -12 -7 -27 -16 -34 -15 -10 -15 -16 1 -73 10
-34 22 -59 27 -56 10 7 38 -14 38 -28 0 -6 -8 -4 -17 3 -16 13 -17 12 -5 -3 8
-10 17 -17 20 -16 19 2 35 -3 28 -9 -3 -4 8 -22 26 -41 32 -33 32 -34 8 -27
-14 4 -36 18 -51 31 -14 13 -33 24 -42 24 -10 0 -27 6 -38 12 -14 9 -23 9 -25
3 -2 -6 -23 -9 -46 -7 l-42 4 27 15 c15 7 32 11 37 8 5 -3 7 0 5 7 -3 8 -18
13 -33 12 -15 -1 -37 -2 -48 -3 -12 0 -22 -7 -21 -13 1 -39 -5 -58 -18 -58 -8
0 -15 5 -15 11 0 5 5 7 10 4 6 -3 10 1 10 10 0 12 -6 15 -19 10 -14 -4 -21 0
-24 12 -2 13 -7 8 -14 -17 -7 -22 -12 -28 -12 -14 -1 16 -8 20 -36 20 -20 0
-35 -5 -35 -12 0 -6 16 -32 36 -59 27 -34 39 -44 45 -34 9 15 13 6 23 -48 6
-38 -9 -37 -39 4 -11 15 -31 40 -44 56 l-24 29 -18 -24 c-15 -18 -19 -20 -19
-6 0 9 8 21 17 27 14 7 15 12 4 25 -7 8 -10 20 -6 26 4 6 -6 10 -24 10 -17 0
-31 5 -31 10 0 6 5 10 10 10 6 0 10 7 10 15 0 8 -7 15 -15 15 -8 0 -15 5 -15
11 0 5 5 7 10 4 16 -10 11 8 -9 33 -11 12 -24 22 -30 22 -6 0 -11 4 -11 8 0 5
-11 14 -25 20 -17 8 -24 18 -22 34 1 15 -3 22 -12 20 -7 -1 -19 3 -27 9 -11 9
-14 9 -14 0 0 -6 6 -14 14 -17 7 -3 14 -17 15 -32 0 -15 3 -50 5 -79 l4 -51
-29 10 c-16 5 -29 15 -29 21 0 7 -8 3 -17 -8 -13 -17 -15 -17 -10 -2 9 24 -22
60 -40 45 -10 -8 -18 -4 -34 16 -12 15 -27 25 -34 22 -19 -7 -38 20 -30 44 5
14 2 20 -10 20 -10 0 -13 5 -9 12 5 8 2 9 -10 5 -20 -8 -56 21 -39 31 6 4 7
15 2 27 -4 11 -8 14 -8 6 -1 -8 -7 -11 -16 -7 -13 5 -14 2 -4 -16 9 -18 8 -24
-6 -34 -16 -12 -16 -14 -2 -19 20 -8 30 -35 13 -35 -16 0 -29 34 -26 68 1 12
-3 22 -9 22 -6 0 -8 -7 -5 -15 17 -43 -66 21 -96 74 -7 13 -10 10 -15 -12 -10
-38 -2 -51 40 -71 20 -10 39 -25 42 -34 4 -9 16 -25 27 -34 12 -10 26 -22 33
-28 7 -5 17 -10 22 -10 5 0 13 -5 16 -10 4 -7 -3 -8 -22 -4 -15 4 -29 11 -31
16 -2 4 -10 8 -17 8 -14 0 -110 85 -110 98 -1 22 -27 51 -41 45 -11 -4 -15 0
-12 13 2 14 -2 18 -18 16 -14 -2 -24 5 -32 23 -6 14 -16 25 -21 25 -15 0 -22
-32 -10 -46 9 -11 8 -14 -4 -14 -16 0 -27 20 -27 51 0 10 -4 19 -10 19 -5 0
-10 11 -10 24 0 16 -5 23 -16 22 -9 0 -19 5 -21 12 -3 7 5 12 20 12 13 0 30 7
37 15 18 22 30 18 30 -11 0 -14 -4 -23 -9 -19 -23 14 -18 -15 5 -30 25 -16 26
-16 19 4 -4 12 -2 21 4 21 6 0 11 7 11 15 0 8 -4 15 -9 15 -6 0 -3 16 5 35 13
31 13 35 -1 35 -10 0 -15 10 -15 29 0 17 -4 33 -10 36 -5 3 -10 13 -10 21 0
18 -19 38 -40 42 -20 4 -50 43 -50 65 0 10 4 16 9 13 5 -3 11 7 14 23 4 18 14
30 27 34 17 4 20 10 14 31 -6 25 -6 25 27 14 19 -6 40 -16 48 -22 12 -9 13 -8
5 4 -5 8 -9 29 -9 45 0 26 -3 30 -25 27 -14 -1 -42 -4 -63 -5 -20 -2 -40 -7
-44 -10 -10 -11 -43 -8 -43 3 0 6 7 10 16 10 13 0 12 5 -5 29 -12 16 -21 32
-21 36 0 3 -22 29 -50 56 -27 27 -50 56 -50 65 0 8 -4 13 -9 9 -5 -3 -12 -1
-16 4 -3 6 -13 7 -22 4 -11 -4 -14 -3 -9 6 5 7 2 20 -6 29 -22 26 -47 99 -41
121 3 12 -3 24 -18 34 -19 14 -21 22 -16 62 4 25 14 56 22 69 13 19 13 25 3
29 -10 4 -10 7 -1 14 10 7 10 14 0 33 -15 30 -16 70 -2 68 6 -2 9 -9 7 -16 -2
-8 1 -11 7 -7 6 3 11 20 11 36 0 17 7 37 15 45 8 9 15 24 15 34 0 10 5 22 10
25 6 4 8 15 5 26 -4 10 -3 24 1 31 5 7 10 33 12 58 2 25 10 50 18 56 8 6 17
33 20 60 4 27 10 54 13 59 4 6 18 44 31 85 14 41 29 78 33 81 4 3 5 13 1 22
-3 9 -2 17 4 17 6 0 13 -6 15 -12 3 -8 6 -7 6 4 1 9 -3 20 -9 23 -5 3 -10 17
-10 31 0 21 9 29 32 25 4 0 6 13 6 29 -1 29 6 44 20 46 4 0 15 4 25 9 14 6 15
10 6 21 -9 11 -8 14 5 14 9 0 16 6 16 14 0 8 3 16 8 18 4 2 23 22 43 46 26 30
35 49 31 64 -4 17 -2 20 11 15 24 -9 31 11 13 38 -19 29 -22 46 -3 21 12 -16
14 -16 30 2 10 11 19 33 20 51 1 17 8 31 15 31 6 0 12 -4 12 -10z m2410 -672
c60 -2 85 -7 88 -17 3 -8 0 -11 -7 -7 -6 4 -11 3 -11 -3 0 -5 5 -13 10 -16 6
-3 10 -1 10 4 0 6 5 11 11 11 6 0 9 -6 6 -12 -2 -8 4 -14 17 -14 45 -4 66 -9
66 -16 0 -4 -5 -8 -11 -8 -5 0 -8 -4 -5 -9 3 -5 14 -7 25 -4 10 3 21 -2 24
-10 4 -10 -10 -17 -56 -25 -157 -29 -245 -37 -324 -29 -28 3 -32 0 -42 -35 -7
-21 -16 -38 -22 -38 -6 0 -7 -4 -4 -10 3 -5 1 -10 -4 -10 -13 0 -14 24 -2 48
5 9 13 28 19 42 46 110 69 151 90 156 12 3 22 11 22 18 0 8 3 7 8 -1 5 -7 40
-13 92 -15z"/>
<path d="M2336 5594 c-143 -32 -263 -119 -320 -231 -25 -50 -68 -203 -83 -298
-12 -78 -9 -343 6 -410 62 -289 234 -493 501 -595 246 -95 508 -97 713 -6 130
57 262 170 366 313 113 157 227 432 238 575 5 58 2 74 -20 120 -14 29 -45 74
-69 99 -53 56 -168 149 -184 149 -7 0 -14 3 -16 8 -5 12 -165 96 -253 133
-159 66 -295 108 -436 135 -125 23 -357 27 -443 8z m402 -79 c107 -19 286 -63
326 -80 17 -7 67 -28 111 -46 127 -53 274 -135 341 -191 75 -62 121 -110 141
-145 l22 -38 -196 -230 c-107 -127 -216 -253 -241 -282 -26 -28 -58 -66 -72
-84 -14 -18 -30 -37 -36 -43 -6 -6 -50 -58 -99 -116 -48 -58 -107 -127 -131
-154 l-44 -48 -88 6 c-295 20 -535 144 -660 341 -56 87 -109 275 -114 400 -2
46 2 54 40 95 44 48 225 260 455 532 94 112 90 110 245 83z"/>
<path d="M4907 4919 c-129 -17 -257 -71 -305 -129 -26 -31 -51 -101 -71 -197
-29 -145 -33 -183 -32 -332 0 -231 50 -413 154 -566 147 -216 454 -366 752
-368 154 -1 222 13 343 69 252 116 450 392 531 740 33 144 29 225 -16 321 -99
211 -393 371 -823 444 -132 23 -426 33 -533 18z m352 -73 c62 -4 117 -8 121
-11 4 -2 33 -7 66 -10 134 -12 382 -94 521 -172 109 -61 213 -170 244 -255 12
-34 11 -40 -7 -56 -10 -11 -28 -30 -39 -43 -11 -13 -61 -71 -110 -129 -49 -58
-99 -116 -110 -129 -11 -14 -40 -47 -65 -75 -25 -28 -63 -74 -85 -101 -22 -28
-42 -52 -45 -55 -8 -7 -112 -129 -141 -164 -13 -16 -44 -52 -69 -80 -25 -28
-67 -77 -95 -109 -56 -65 -65 -67 -187 -42 -321 67 -534 227 -620 470 -54 151
-83 345 -55 368 7 7 51 57 98 112 46 55 88 105 94 111 5 6 28 33 50 59 22 27
45 53 50 59 6 6 37 43 70 81 33 39 62 72 65 75 3 3 21 25 39 48 33 42 64 63
86 56 6 -1 61 -5 124 -8z"/>
<path d="M4625 3129 c-4 -6 2 -19 14 -30 12 -11 21 -27 21 -35 0 -9 5 -13 13
-9 6 4 4 0 -5 -8 -26 -21 -22 -28 10 -21 l27 7 -23 -19 -24 -20 22 -24 c12
-14 19 -19 15 -12 -3 6 -1 12 4 12 6 0 11 -15 12 -32 0 -30 1 -31 9 -10 13 32
23 27 15 -8 -4 -20 -3 -30 5 -30 6 0 18 -7 26 -15 18 -17 34 -20 34 -5 0 6 -4
10 -9 10 -10 0 -9 14 4 43 8 20 -21 61 -40 53 -6 -2 -11 5 -11 15 0 11 4 19 8
19 4 0 8 7 8 16 0 11 -6 14 -21 9 -19 -6 -21 -4 -17 19 3 15 1 29 -5 33 -6 3
-7 1 -3 -5 4 -7 1 -12 -9 -12 -19 0 -77 54 -68 63 3 4 4 7 0 7 -3 0 -9 -5 -12
-11z"/>
<path d="M7170 382 c0 -4 -18 -18 -40 -32 -22 -14 -40 -28 -40 -32 0 -5 -4 -8
-10 -8 -16 0 -45 -27 -189 -170 -118 -117 -133 -135 -113 -138 17 -3 37 9 70
41 26 24 61 52 77 63 17 10 37 24 45 31 195 156 225 185 228 223 2 21 -2 30
-13 30 -8 0 -15 -3 -15 -8z"/>
</g>
</svg>
